name C:\Users\Nicos\Desktop\Gil_twoSteps\Study2\ExperimentalData\IK_Splined\twoSteps_IK_BSplines_160_meshInts_study2_p02_s_01_lowIK_modROI.mot
datacolumns 38
datarows 11
range 0.43700000 0.44420749
endheader
                time	         pelvis_tilt	         pelvis_list	     pelvis_rotation	           pelvis_tx	           pelvis_ty	           pelvis_tz	       hip_flexion_r	     hip_adduction_r	      hip_rotation_r	        knee_angle_r	       ankle_angle_r	    subtalar_angle_r	         mtp_angle_r	       hip_flexion_l	     hip_adduction_l	      hip_rotation_l	        knee_angle_l	       ankle_angle_l	    subtalar_angle_l	         mtp_angle_l	    lumbar_extension	      lumbar_bending	     lumbar_rotation	          arm_flex_r	           arm_add_r	           arm_rot_r	        elbow_flex_r	           pro_sup_r	        wrist_flex_r	         wrist_dev_r	          arm_flex_l	           arm_add_l	           arm_rot_l	        elbow_flex_l	           pro_sup_l	        wrist_flex_l	         wrist_dev_l	
          0.43700000	        -21.48020439	          1.40872971	        -11.36326192	         -0.86225136	          0.85366255	          0.34102070	         25.49619403	          1.62342472	         10.78387628	        -56.88878153	         18.80758732	        -16.02205244	         12.54454892	         53.38278397	         -3.63616426	        -14.77491664	       -110.56230071	         -5.96177269	        -14.42042071	         10.20654138	        -25.63237483	         -3.42864248	         -6.78028620	         32.74767755	          1.27710882	          9.83525801	         81.56855888	         71.96225096	         -5.49840563	         10.71095411	        -43.70787533	         -9.82067336	        -17.01266976	         37.22026838	         71.14440051	        -10.39661441	         19.42779809	
          0.43742251	        -21.46082384	          1.47141054	        -11.42206299	         -0.86039455	          0.85361306	          0.34113451	         25.32129562	          1.52947732	         10.82021838	        -56.77696681	         18.75936949	        -15.98100243	         12.64237494	         53.67282743	         -3.60261890	        -14.74868079	       -110.68251488	         -5.85706311	        -14.42994663	         10.20067648	        -25.60671923	         -3.55090826	         -6.78428561	         33.12180088	          1.40542050	          9.90922887	         81.71218608	         71.95293684	         -5.50986210	         10.71487823	        -44.05719309	         -9.77442178	        -17.05702986	         37.30290187	         71.32609284	        -10.35510111	         19.48881115	
          0.43875749	        -21.41059027	          1.67985897	        -11.58523261	         -0.85448411	          0.85342360	          0.34145957	         24.76949075	          1.20138862	         10.91623481	        -56.39594121	         18.60784384	        -15.82515123	         12.96679862	         54.60312824	         -3.47782515	        -14.65523022	       -111.02496959	         -5.55027652	        -14.49428064	         10.14038296	        -25.50186018	         -3.93913951	         -6.77876642	         34.26384845	          1.77086591	         10.12864598	         82.20924689	         71.92654490	         -5.54769040	         10.72587147	        -45.16300016	         -9.63218670	        -17.18676155	         37.61998043	         71.90520028	        -10.21674115	         19.67033238	
          0.43972500	        -21.37511499	          1.83181148	        -11.70157438	         -0.85019685	          0.85328349	          0.34169223	         24.36964095	          0.96096245	         10.98423000	        -56.11744697	         18.49809607	        -15.70998530	         13.20322098	         55.27853407	         -3.38578976	        -14.58660884	       -111.26999828	         -5.32997057	        -14.54380443	         10.09315035	        -25.42384965	         -4.22067076	         -6.77322954	         35.08815310	          2.03233741	         10.28645687	         82.57315088	         71.90767454	         -5.57524429	         10.73371979	        -45.96460641	         -9.52943277	        -17.27990119	         37.85452104	         72.32533153	        -10.11585644	         19.80093622	
          0.43972500	        -21.37511499	          1.83181148	        -11.70157438	         -0.85019685	          0.85328349	          0.34169223	         24.36964095	          0.96096245	         10.98423000	        -56.11744697	         18.49809607	        -15.70998530	         13.20322098	         55.27853407	         -3.38578976	        -14.58660884	       -111.26999828	         -5.32997057	        -14.54380443	         10.09315035	        -25.42384965	         -4.22067076	         -6.77322954	         35.08815310	          2.03233741	         10.28645687	         82.57315088	         71.90767454	         -5.57524429	         10.73371979	        -45.96460641	         -9.52943277	        -17.27990119	         37.85452104	         72.32533153	        -10.11585644	         19.80093622	
          0.44014751	        -21.35962290	          1.89816925	        -11.75238091	         -0.84832460	          0.85322230	          0.34179383	         24.19502627	          0.85596818	         11.01392355	        -55.99582834	         18.45016915	        -15.65969226	         13.30646679	         55.57348425	         -3.34559784	        -14.55664183	       -111.37700248	         -5.23376281	        -14.56543151	         10.07252384	        -25.38978240	         -4.34361565	         -6.77081159	         35.44812750	          2.14652219	         10.35537299	         82.73206801	         71.89943384	         -5.58727709	         10.73714716	        -46.31466840	         -9.48456006	        -17.32057534	         37.95694508	         72.50880313	        -10.07180001	         19.85797101	
          0.44148249	        -21.31996123	          2.11675941	        -11.89286907	         -0.84236286	          0.85299974	          0.34208383	         23.64238064	          0.49798895	         11.09107549	        -55.58519509	         18.29571358	        -15.47857711	         13.64592069	         56.51443849	         -3.20298011	        -14.45456856	       -111.67988815	         -4.94958359	        -14.65873363	          9.98358356	        -25.26213225	         -4.73375632	         -6.74830538	         36.55342826	          2.46388206	         10.57135584	         83.27158192	         71.86894746	         -5.62857576	         10.74631251	        -47.42120314	         -9.34520434	        -17.45443001	         38.32390551	         73.07496716	         -9.92560144	         20.02738479	
          0.44245000	        -21.29262635	          2.27653655	        -11.99164521	         -0.83803511	          0.85283400	          0.34228930	         23.24171170	          0.23456221	         11.14446092	        -55.28358821	         18.18331336	        -15.34394352	         13.89394781	         57.19776126	         -3.09724644	        -14.37946974	       -111.89405920	         -4.74663140	        -14.73014409	          9.91551655	        -25.16658081	         -5.01676455	         -6.72973747	         37.34962102	          2.68729645	         10.72762055	         83.66826911	         71.84617726	         -5.65900464	         10.75270251	        -48.22323164	         -9.24457489	        -17.55225123	         38.59643733	         73.48323764	         -9.81858247	         20.14852825	
          0.44245000	        -21.29262635	          2.27653655	        -11.99164521	         -0.83803511	          0.85283400	          0.34228930	         23.24171170	          0.23456221	         11.14446092	        -55.28358821	         18.18331336	        -15.34394352	         13.89394781	         57.19776126	         -3.09724644	        -14.37946974	       -111.89405920	         -4.74663140	        -14.73014409	          9.91551655	        -25.16658081	         -5.01676455	         -6.72973747	         37.34962102	          2.68729645	         10.72762055	         83.66826911	         71.84617726	         -5.65900464	         10.75270251	        -48.22323164	         -9.24457489	        -17.55225123	         38.59643733	         73.48323764	         -9.81858247	         20.14852825	
          0.44287251	        -21.28068920	          2.34631133	        -12.03478081	         -0.83614517	          0.85276162	          0.34237903	         23.06673931	          0.11952358	         11.16777437	        -55.15187628	         18.13422811	        -15.28514894	         14.00226143	         57.49616878	         -3.05107247	        -14.34667404	       -111.98758785	         -4.65800204	        -14.76132908	          9.88579164	        -25.12485343	         -5.14035444	         -6.72162885	         37.69731895	          2.78486166	         10.79586146	         83.84150268	         71.83623350	         -5.67229296	         10.75549302	        -48.57347803	         -9.20062995	        -17.59496982	         38.71545217	         73.66152963	         -9.77184721	         20.20143168	
          0.44420749	        -21.25027708	          2.57447102	        -12.15362100	         -0.83012596	          0.85250774	          0.34263490	         22.51109970	         -0.26582375	         11.22674186	        -54.71093494	         17.97278384	        -15.08088880	         14.35502665	         58.44324953	         -2.89253078	        -14.23873610	       -112.25018313	         -4.39386551	        -14.87712648	          9.78426871	        -24.97694626	         -5.53255515	         -6.68427805	         38.77117073	          3.04790177	         11.01990300	         84.42106783	         71.79296776	         -5.71894885	         10.76235116	        -49.67907945	         -9.06256466	        -17.74938000	         39.12431358	         74.19314602	         -9.61772388	         20.35794522	
